<svg xmlns="http://www.w3.org/2000/svg" xmlns:xlink="http://www.w3.org/1999/xlink" width="500" zoomAndPan="magnify" viewBox="0 0 375 374.999991" height="500" preserveAspectRatio="xMidYMid meet" version="1.0"><defs><clipPath id="39b8bee81d"><path d="M 65 28.601562 L 312 28.601562 L 312 238 L 65 238 Z M 65 28.601562 " clip-rule="nonzero"/></clipPath></defs><path fill="#1d1d1b" d="M 141.582031 339.863281 C 141.070312 337.417969 140.554688 334.976562 140.039062 332.53125 C 137.21875 318.996094 128.238281 276.960938 126.789062 270.871094 C 126.417969 269.316406 124.535156 268.714844 123.339844 269.777344 C 121.140625 271.734375 72.816406 317.21875 49.441406 339.863281 Z M 141.582031 339.863281 " fill-opacity="1" fill-rule="nonzero"/><path fill="#1d1d1b" d="M 327.3125 339.863281 C 307.578125 320.585938 253.519531 269.257812 253.519531 269.257812 C 252.683594 268.433594 251.277344 268.761719 250.917969 269.882812 C 249.664062 273.71875 240.753906 312.773438 237.511719 328.066406 C 236.683594 331.996094 235.839844 335.933594 235 339.863281 Z M 327.3125 339.863281 " fill-opacity="1" fill-rule="nonzero"/><g clip-path="url(#39b8bee81d)"><path fill="#1d1d1b" d="M 76.257812 192.945312 C 82.707031 197.988281 90.53125 199.328125 98.273438 200.964844 C 100.921875 201.523438 103.761719 202.617188 105.820312 204.3125 C 113.84375 210.917969 119.578125 219.335938 123.824219 228.796875 C 125.042969 231.519531 126.246094 234.257812 127.460938 236.984375 C 127.84375 237.050781 128.226562 237.117188 128.613281 237.183594 C 131.128906 226.589844 137.804688 218.632812 145.628906 210.859375 C 120.777344 205.933594 105.660156 192.964844 104.558594 167.539062 C 103.789062 149.710938 112.125 135.738281 127.769531 128.425781 C 153.53125 116.394531 173.492188 125.792969 188.0625 149.488281 C 200.363281 128.117188 217.902344 118.761719 241.636719 125.625 C 258.605469 130.527344 270.757812 146.316406 271.261719 163.253906 C 272.078125 190.832031 256.960938 205.53125 229.714844 210.957031 C 238.71875 218.183594 243.699219 227.320312 247.570312 236.894531 C 252.226562 228.789062 256.023438 221.148438 260.796875 214.175781 C 265.789062 206.878906 271.726562 200.277344 281.726562 199.953125 C 283.636719 199.894531 285.566406 199.339844 287.425781 198.789062 C 294.773438 196.59375 301.277344 193.113281 305.582031 186.394531 C 312.597656 175.4375 311.875 163.542969 308.867188 151.835938 C 305.84375 140.0625 297.449219 136.84375 286.457031 142.355469 C 283.558594 143.8125 282.21875 143.4375 281.136719 140.105469 C 278.589844 132.234375 276.125 124.257812 272.65625 116.769531 C 264.5 99.140625 252.40625 85.007812 234.433594 76.628906 C 231.398438 75.210938 230.441406 73.3125 232.707031 70.253906 C 236.511719 65.117188 237.597656 59.175781 237.097656 52.921875 C 236.992188 51.5625 236.386719 50.242188 236.261719 49.816406 C 232.035156 52.921875 228.167969 56.027344 224.03125 58.703125 C 221.589844 60.277344 220.226562 59.203125 219.929688 56.460938 C 219.46875 52.222656 219.21875 47.878906 218.03125 43.828125 C 216.148438 37.394531 212.753906 31.832031 205.566406 28.601562 C 205.339844 30.398438 205.308594 31.738281 204.992188 33.011719 C 203.8125 37.730469 203.535156 43.023438 201.121094 47.011719 C 193.097656 60.25 180.042969 66.699219 165.523438 69.515625 C 152.09375 72.117188 139.511719 76.058594 128.515625 84.394531 C 110.253906 98.230469 101.132812 117.699219 95 138.980469 C 93.621094 143.753906 93.277344 143.871094 88.730469 141.953125 C 80.171875 138.339844 71.109375 138.367188 67.722656 149.640625 C 65.824219 155.949219 65.476562 162.871094 65.308594 169.535156 C 65.074219 178.96875 68.691406 187.027344 76.261719 192.945312 Z M 76.257812 192.945312 " fill-opacity="1" fill-rule="nonzero"/></g><path fill="#1d1d1b" d="M 161.578125 257.125 C 169.082031 261.359375 177.015625 263.730469 185.207031 263.007812 C 195.59375 263.472656 204.996094 261.5625 213.933594 257.269531 C 217.695312 255.464844 219.792969 250.828125 218.5 246.925781 C 217.835938 244.917969 216.601562 244.679688 214.894531 245.5625 C 211.6875 247.222656 208.476562 248.898438 205.261719 250.558594 C 195.816406 255.449219 186.003906 256.53125 176.042969 252.636719 C 170.894531 250.625 166.019531 247.882812 161.101562 245.304688 C 158.933594 244.171875 157.992188 245.042969 157.351562 246.945312 C 156.074219 250.769531 157.953125 255.082031 161.570312 257.125 Z M 161.578125 257.125 " fill-opacity="1" fill-rule="nonzero"/><path fill="#1d1d1b" d="M 165.867188 217.339844 C 169.042969 221.632812 173.410156 224.203125 178.96875 225.613281 C 179.480469 225.382812 180.59375 225.230469 180.898438 224.652344 C 181.214844 224.039062 181.015625 222.855469 180.601562 222.203125 C 177.558594 217.445312 173.015625 214.972656 167.535156 214.351562 C 165.492188 214.121094 164.566406 215.585938 165.867188 217.339844 Z M 165.867188 217.339844 " fill-opacity="1" fill-rule="nonzero"/><path fill="#1d1d1b" d="M 209.992188 217.117188 C 210.21875 216.839844 209.386719 215.011719 208.753906 214.808594 C 204.886719 213.554688 196.042969 218.703125 195.039062 222.824219 C 194.828125 223.6875 195.679688 224.808594 196.042969 225.804688 C 202.242188 224.128906 206.566406 221.269531 210 217.121094 Z M 209.992188 217.117188 " fill-opacity="1" fill-rule="nonzero"/><path fill="#91caa0" d="M 220.359375 276.6875 C 220.359375 276.6875 190.867188 285.988281 189.894531 286.3125 C 188.746094 286.738281 187.941406 286.671875 186.433594 286.3125 C 184.925781 285.949219 155.96875 276.6875 155.96875 276.6875 C 153.324219 275.675781 150.492188 277.628906 150.492188 280.464844 L 150.492188 299.714844 C 150.492188 302.546875 153.324219 304.507812 155.96875 303.492188 C 155.96875 303.492188 185.222656 294.242188 186.433594 293.867188 C 187.644531 293.492188 188.742188 293.410156 189.894531 293.867188 C 191.046875 294.320312 220.359375 303.492188 220.359375 303.492188 C 223 304.5 225.835938 302.546875 225.835938 299.714844 L 225.835938 280.464844 C 225.835938 277.628906 223 275.671875 220.359375 276.6875 Z M 220.359375 276.6875 " fill-opacity="1" fill-rule="nonzero"/><path fill="#1d1d1b" d="M 241.902344 172.898438 C 242.316406 171.265625 243.035156 169.035156 239.945312 169.167969 C 230.894531 169.550781 225.414062 165.054688 222.835938 156.640625 C 222.144531 154.375 220.898438 154.144531 219.039062 155.136719 C 213.207031 158.257812 209.980469 165.765625 211.609375 172.457031 C 213.355469 179.65625 219.402344 184.5625 226.558594 184.582031 C 233.597656 184.601562 240.207031 179.636719 241.90625 172.898438 Z M 241.902344 172.898438 " fill-opacity="1" fill-rule="nonzero"/><path fill="#1d1d1b" d="M 162.921875 169.140625 C 160.503906 168.957031 157.964844 168.613281 155.75 167.683594 C 150.972656 165.679688 148.140625 161.808594 146.828125 156.820312 C 146.214844 154.492188 144.910156 154.003906 142.855469 155.183594 C 136.5625 158.796875 133.8125 166.070312 135.847656 173.789062 C 137.410156 179.722656 144.113281 184.59375 150.703125 184.582031 C 157.4375 184.574219 164.257812 179.4375 165.8125 173.195312 C 166.605469 170.03125 165.980469 169.371094 162.925781 169.132812 Z M 162.921875 169.140625 " fill-opacity="1" fill-rule="nonzero"/></svg>