<svg xmlns="http://www.w3.org/2000/svg" xmlns:xlink="http://www.w3.org/1999/xlink" width="500" zoomAndPan="magnify" viewBox="0 0 375 374.999991" height="500" preserveAspectRatio="xMidYMid meet" version="1.0"><defs><clipPath id="5a39bdd6a3"><path d="M 123 67.480469 L 253 67.480469 L 253 177 L 123 177 Z M 123 67.480469 " clip-rule="nonzero"/></clipPath><clipPath id="08d6df92ef"><path d="M 16.539062 248 L 54 248 L 54 299 L 16.539062 299 Z M 16.539062 248 " clip-rule="nonzero"/></clipPath><clipPath id="0f7516d0c2"><path d="M 77 247 L 123 247 L 123 307.480469 L 77 307.480469 Z M 77 247 " clip-rule="nonzero"/></clipPath><clipPath id="bdfd533770"><path d="M 212 247 L 247 247 L 247 307.480469 L 212 307.480469 Z M 212 247 " clip-rule="nonzero"/></clipPath><clipPath id="8b04438a41"><path d="M 288 237 L 325 237 L 325 307.480469 L 288 307.480469 Z M 288 237 " clip-rule="nonzero"/></clipPath><clipPath id="a187dd0aed"><path d="M 325 236 L 358.539062 236 L 358.539062 307.480469 L 325 307.480469 Z M 325 236 " clip-rule="nonzero"/></clipPath></defs><path fill="#1d1d1b" d="M 163.449219 230.5 C 163.179688 229.21875 162.910156 227.941406 162.640625 226.660156 C 161.160156 219.570312 156.453125 197.554688 155.695312 194.367188 C 155.5 193.550781 154.511719 193.238281 153.886719 193.792969 C 152.734375 194.816406 127.40625 218.636719 115.152344 230.5 Z M 163.449219 230.5 " fill-opacity="1" fill-rule="nonzero"/><path fill="#1d1d1b" d="M 260.796875 230.5 C 250.453125 220.402344 222.121094 193.519531 222.121094 193.519531 C 221.679688 193.089844 220.945312 193.261719 220.753906 193.847656 C 220.097656 195.855469 215.429688 216.3125 213.730469 224.320312 C 213.292969 226.378906 212.851562 228.441406 212.414062 230.5 Z M 260.796875 230.5 " fill-opacity="1" fill-rule="nonzero"/><g clip-path="url(#5a39bdd6a3)"><path fill="#1d1d1b" d="M 129.207031 153.554688 C 132.589844 156.195312 136.691406 156.894531 140.75 157.753906 C 142.136719 158.046875 143.625 158.621094 144.703125 159.507812 C 148.910156 162.964844 151.914062 167.375 154.140625 172.332031 C 154.777344 173.757812 155.410156 175.1875 156.046875 176.617188 C 156.246094 176.652344 156.445312 176.6875 156.652344 176.722656 C 157.96875 171.171875 161.46875 167.007812 165.570312 162.933594 C 152.542969 160.355469 144.621094 153.566406 144.042969 140.246094 C 143.640625 130.910156 148.007812 123.589844 156.207031 119.761719 C 169.710938 113.460938 180.171875 118.382812 187.808594 130.792969 C 194.257812 119.601562 203.449219 114.699219 215.890625 118.292969 C 224.785156 120.863281 231.15625 129.132812 231.417969 138.003906 C 231.847656 152.445312 223.921875 160.144531 209.644531 162.988281 C 214.363281 166.769531 216.972656 171.558594 219 176.570312 C 221.441406 172.328125 223.433594 168.324219 225.933594 164.671875 C 228.550781 160.851562 231.664062 157.394531 236.902344 157.222656 C 237.90625 157.191406 238.917969 156.902344 239.890625 156.613281 C 243.742188 155.464844 247.152344 153.640625 249.40625 150.121094 C 253.085938 144.382812 252.707031 138.15625 251.128906 132.023438 C 249.542969 125.855469 245.144531 124.171875 239.382812 127.058594 C 237.863281 127.820312 237.160156 127.625 236.59375 125.878906 C 235.257812 121.757812 233.96875 117.578125 232.148438 113.65625 C 227.875 104.425781 221.535156 97.023438 212.117188 92.632812 C 210.523438 91.890625 210.023438 90.898438 211.210938 89.296875 C 213.203125 86.605469 213.773438 83.496094 213.511719 80.21875 C 213.457031 79.507812 213.140625 78.816406 213.074219 78.589844 C 210.859375 80.21875 208.832031 81.84375 206.664062 83.246094 C 205.382812 84.070312 204.667969 83.507812 204.515625 82.070312 C 204.273438 79.851562 204.140625 77.578125 203.519531 75.457031 C 202.53125 72.085938 200.753906 69.171875 196.984375 67.480469 C 196.867188 68.421875 196.847656 69.125 196.683594 69.789062 C 196.066406 72.261719 195.921875 75.035156 194.65625 77.125 C 190.449219 84.058594 183.605469 87.433594 175.996094 88.910156 C 168.957031 90.273438 162.363281 92.335938 156.597656 96.703125 C 147.027344 103.949219 142.246094 114.144531 139.03125 125.289062 C 138.308594 127.789062 138.128906 127.851562 135.746094 126.847656 C 131.261719 124.953125 126.511719 124.96875 124.734375 130.875 C 123.742188 134.175781 123.558594 137.800781 123.472656 141.292969 C 123.347656 146.234375 125.242188 150.453125 129.210938 153.554688 Z M 129.207031 153.554688 " fill-opacity="1" fill-rule="nonzero"/></g><path fill="#1d1d1b" d="M 173.929688 187.167969 C 177.863281 189.382812 182.019531 190.625 186.316406 190.246094 C 191.757812 190.492188 196.6875 189.492188 201.371094 187.242188 C 203.34375 186.296875 204.441406 183.871094 203.765625 181.824219 C 203.414062 180.773438 202.769531 180.648438 201.875 181.109375 C 200.191406 181.980469 198.511719 182.859375 196.824219 183.726562 C 191.875 186.289062 186.734375 186.855469 181.511719 184.816406 C 178.8125 183.761719 176.257812 182.324219 173.679688 180.976562 C 172.542969 180.382812 172.050781 180.835938 171.714844 181.835938 C 171.042969 183.839844 172.027344 186.097656 173.925781 187.167969 Z M 173.929688 187.167969 " fill-opacity="1" fill-rule="nonzero"/><path fill="#1d1d1b" d="M 176.175781 166.328125 C 177.839844 168.578125 180.132812 169.921875 183.042969 170.664062 C 183.3125 170.542969 183.898438 170.460938 184.054688 170.160156 C 184.222656 169.835938 184.117188 169.21875 183.898438 168.878906 C 182.304688 166.382812 179.925781 165.089844 177.050781 164.765625 C 175.980469 164.644531 175.496094 165.410156 176.175781 166.328125 Z M 176.175781 166.328125 " fill-opacity="1" fill-rule="nonzero"/><path fill="#1d1d1b" d="M 199.304688 166.210938 C 199.421875 166.066406 198.988281 165.109375 198.65625 165.003906 C 196.628906 164.347656 191.992188 167.042969 191.46875 169.203125 C 191.359375 169.652344 191.804688 170.242188 191.992188 170.761719 C 195.242188 169.886719 197.507812 168.386719 199.308594 166.214844 Z M 199.304688 166.210938 " fill-opacity="1" fill-rule="nonzero"/><path fill="#91caa0" d="M 204.738281 197.410156 C 204.738281 197.410156 189.28125 202.28125 188.769531 202.453125 C 188.167969 202.675781 187.746094 202.640625 186.957031 202.453125 C 186.164062 202.261719 170.988281 197.410156 170.988281 197.410156 C 169.605469 196.882812 168.117188 197.90625 168.117188 199.390625 L 168.117188 209.472656 C 168.117188 210.957031 169.605469 211.980469 170.988281 211.449219 C 170.988281 211.449219 186.320312 206.605469 186.957031 206.410156 C 187.59375 206.210938 188.164062 206.171875 188.769531 206.410156 C 189.375 206.648438 204.738281 211.449219 204.738281 211.449219 C 206.125 211.976562 207.609375 210.957031 207.609375 209.472656 L 207.609375 199.390625 C 207.609375 197.90625 206.125 196.878906 204.738281 197.410156 Z M 204.738281 197.410156 " fill-opacity="1" fill-rule="nonzero"/><path fill="#1d1d1b" d="M 216.03125 143.054688 C 216.246094 142.199219 216.625 141.03125 215.003906 141.101562 C 210.261719 141.300781 207.386719 138.945312 206.039062 134.539062 C 205.675781 133.351562 205.023438 133.230469 204.046875 133.753906 C 200.992188 135.386719 199.296875 139.320312 200.152344 142.824219 C 201.066406 146.59375 204.238281 149.164062 207.988281 149.171875 C 211.679688 149.183594 215.140625 146.582031 216.035156 143.054688 Z M 216.03125 143.054688 " fill-opacity="1" fill-rule="nonzero"/><path fill="#1d1d1b" d="M 174.632812 141.085938 C 173.363281 140.988281 172.035156 140.808594 170.875 140.324219 C 168.371094 139.273438 166.886719 137.246094 166.199219 134.632812 C 165.875 133.414062 165.191406 133.160156 164.113281 133.777344 C 160.816406 135.667969 159.375 139.476562 160.445312 143.519531 C 161.261719 146.628906 164.773438 149.179688 168.230469 149.171875 C 171.757812 149.167969 175.335938 146.480469 176.148438 143.210938 C 176.5625 141.550781 176.234375 141.207031 174.636719 141.082031 Z M 174.632812 141.085938 " fill-opacity="1" fill-rule="nonzero"/><g clip-path="url(#08d6df92ef)"><path fill="#91caa0" d="M 17.222656 281.695312 L 23.625 281.347656 C 23.089844 283.1875 22.785156 284.832031 22.714844 286.277344 C 22.480469 291.378906 25.175781 293.9375 30.792969 293.9375 C 36.414062 293.9375 39.085938 290.824219 39.085938 284.597656 C 39.085938 278.375 35.785156 275.160156 29.183594 275.160156 L 25.40625 275.230469 L 25.40625 269.601562 L 28.136719 269.636719 C 35.085938 269.636719 38.558594 266.695312 38.558594 260.824219 C 38.558594 255.71875 36.101562 253.167969 31.183594 253.167969 C 26.261719 253.167969 23.90625 255.421875 23.90625 259.914062 C 23.90625 261.011719 24.046875 262.28125 24.324219 263.726562 L 17.925781 262.398438 C 17.925781 253.378906 23.171875 248.867188 33.664062 248.867188 C 45.769531 248.867188 51.816406 252.992188 51.816406 261.246094 C 51.816406 266.652344 48.398438 270.324219 41.566406 272.257812 C 49.308594 274.03125 53.179688 278.039062 53.179688 284.285156 C 53.179688 293.582031 46.730469 298.234375 33.835938 298.234375 C 22.367188 298.234375 16.628906 294.386719 16.628906 286.699219 C 16.628906 285.253906 16.828125 283.585938 17.222656 281.699219 Z M 17.222656 281.695312 " fill-opacity="1" fill-rule="nonzero"/></g><g clip-path="url(#0f7516d0c2)"><path fill="#1d1d1b" d="M 94.265625 247.808594 C 94.480469 249.09375 95.988281 255.46875 97.0625 260.265625 C 98.136719 265.058594 100.285156 272.007812 100.429688 272.433594 C 100.570312 272.863281 100.570312 272.433594 100.570312 272.433594 C 100.710938 271.789062 105.800781 248.664062 105.941406 248.019531 C 106.15625 247.304688 106.441406 247.449219 106.441406 247.449219 L 121.558594 247.449219 C 121.84375 247.519531 122.058594 247.449219 122.058594 248.019531 C 122.058594 250.097656 122.058594 286.972656 121.984375 288.046875 C 121.984375 289.117188 122.128906 302.222656 122.128906 302.867188 C 122.128906 303.441406 121.914062 303.296875 121.554688 303.582031 C 121.195312 303.796875 113.175781 307.164062 112.957031 307.089844 C 112.742188 307.089844 112.597656 307.164062 112.597656 306.375 C 112.523438 305.589844 112.382812 286.113281 112.382812 285.398438 C 112.382812 284.609375 112.3125 265.992188 112.3125 265.132812 C 112.238281 264.273438 112.023438 264.992188 112.023438 264.992188 C 112.023438 264.992188 111.449219 267.066406 111.308594 267.785156 C 111.167969 268.359375 107.941406 282.75 107.65625 283.96875 C 107.367188 285.328125 105.003906 296.136719 104.859375 296.855469 C 104.71875 297.570312 104.574219 297.503906 104.289062 297.503906 L 96.910156 297.503906 C 96.195312 297.503906 96.050781 297.355469 95.976562 297.144531 C 95.835938 296.929688 93.613281 285.757812 92.609375 282.035156 C 91.605469 278.382812 88.453125 265.0625 88.3125 264.347656 C 88.097656 263.703125 88.097656 263.921875 88.097656 264.207031 C 88.027344 264.421875 88.027344 280.53125 88.027344 280.890625 C 88.027344 281.320312 88.167969 295.855469 88.167969 296.644531 C 88.167969 297.429688 87.878906 297.355469 87.878906 297.355469 C 87.808594 297.429688 86.804688 297.355469 86.375 297.355469 C 86.015625 297.355469 79.140625 297.429688 78.855469 297.355469 C 78.496094 297.355469 78.566406 297.214844 78.566406 297.214844 C 78.566406 297.214844 78.355469 277.453125 78.355469 273.875 C 78.355469 270.296875 77.996094 247.957031 77.996094 247.957031 C 77.996094 247.453125 78.066406 247.453125 78.496094 247.453125 C 78.710938 247.382812 93.824219 247.527344 93.824219 247.527344 C 93.824219 247.527344 94.183594 247.386719 94.253906 247.8125 Z M 94.265625 247.808594 " fill-opacity="1" fill-rule="nonzero"/></g><path fill="#1d1d1b" d="M 163.460938 259.910156 C 166.542969 273.296875 163.675781 283.46875 163.675781 283.46875 C 160.882812 295.136719 152.214844 297.644531 152.214844 297.644531 C 141.402344 300.867188 134.597656 293.5625 134.597656 293.5625 C 126.574219 286.546875 127.863281 273.585938 128.21875 271.796875 C 128.433594 270.007812 129.441406 266.570312 129.441406 266.570312 C 129.511719 266.355469 129.441406 266.28125 129.726562 266.28125 C 130.15625 266.28125 130.515625 266.640625 130.515625 266.640625 C 133.523438 268.214844 137.464844 268.71875 138.25 268.863281 C 139.039062 269.003906 138.75 269.289062 138.75 269.289062 C 138.035156 273.371094 138.25 278.238281 138.25 278.238281 C 138.679688 288.910156 146.34375 288.761719 146.34375 288.761719 C 151.789062 288.191406 154.507812 284.179688 154.796875 272.292969 C 155.011719 260.480469 150.785156 257.976562 150.785156 257.976562 C 146.488281 254.539062 142.980469 257.542969 142.980469 257.542969 C 139.898438 260.410156 142.621094 263.558594 142.621094 263.558594 C 137.890625 266.351562 130.585938 260.765625 129.726562 259.976562 C 128.867188 259.191406 129.367188 258.757812 129.367188 258.757812 C 133.878906 244.941406 147.632812 246.15625 147.632812 246.15625 C 160.453125 246.730469 163.460938 259.90625 163.460938 259.90625 Z M 163.460938 259.910156 " fill-opacity="1" fill-rule="nonzero"/><path fill="#1d1d1b" d="M 183.875 247.878906 C 183.949219 248.167969 186.523438 254.535156 188.890625 260.410156 C 191.113281 266.277344 194.835938 273.800781 194.835938 273.800781 C 195.195312 274.515625 195.195312 274.011719 195.195312 274.011719 C 195.265625 273.011719 195.195312 254.324219 195.195312 252.605469 C 195.195312 250.890625 195.265625 238.929688 195.265625 238.214844 C 195.265625 237.5 195.914062 237.789062 195.914062 237.789062 C 196.628906 238.144531 203.148438 240.722656 204.152344 241.152344 C 205.152344 241.585938 204.9375 241.800781 204.9375 241.800781 L 205.011719 242.011719 C 204.871094 244.160156 204.726562 264.925781 204.796875 267.859375 C 204.871094 271.007812 205.011719 295.855469 205.011719 296.714844 C 205.011719 297.503906 205.085938 297.144531 204.511719 297.289062 C 203.863281 297.429688 195.058594 297.503906 194.339844 297.503906 C 193.621094 297.503906 193.625 297.144531 193.625 297.144531 C 192.261719 293.847656 189.96875 288.621094 188.179688 283.753906 C 186.171875 278.671875 181.515625 268.503906 181.160156 267.644531 C 180.875 266.785156 180.730469 267.5 180.660156 267.644531 C 180.660156 267.855469 180.660156 296.640625 180.585938 296.929688 C 180.585938 297.121094 180.492188 297.261719 180.300781 297.355469 C 179.941406 297.503906 171.347656 297.355469 171.0625 297.355469 C 170.773438 297.355469 170.847656 297.355469 170.773438 296.855469 C 170.703125 296.355469 170.773438 276.519531 170.773438 276.519531 C 170.632812 271.507812 170.703125 248.023438 170.773438 247.59375 C 170.773438 247.234375 170.988281 247.234375 171.347656 247.234375 C 171.632812 247.304688 182.882812 247.234375 182.882812 247.234375 C 183.667969 247.234375 183.742188 247.660156 183.882812 247.878906 Z M 183.875 247.878906 " fill-opacity="1" fill-rule="nonzero"/><g clip-path="url(#bdfd533770)"><path fill="#1d1d1b" d="M 222.414062 247.953125 L 222.414062 257.332031 C 222.414062 258.335938 222.484375 267.5 222.484375 267.714844 C 222.484375 267.929688 222.699219 267.855469 222.699219 267.855469 C 222.839844 267.714844 230.078125 255.972656 230.363281 255.398438 C 230.722656 254.828125 234.875 247.882812 234.949219 247.738281 C 235.019531 247.597656 235.160156 247.523438 235.664062 247.523438 C 236.164062 247.523438 245.046875 247.453125 245.335938 247.453125 C 245.621094 247.378906 245.980469 247.453125 246.121094 247.59375 C 246.261719 247.734375 246.121094 248.09375 246.050781 248.238281 C 245.90625 248.378906 244.402344 250.960938 243.902344 251.746094 C 243.398438 252.535156 234.804688 266.996094 234.375 267.570312 C 234.015625 268.070312 234.160156 268.144531 234.234375 268.285156 C 234.234375 268.429688 240.035156 283.894531 240.25 284.609375 C 240.464844 285.183594 246.695312 302.796875 246.839844 303.367188 C 246.984375 304.015625 246.699219 304.015625 246.480469 304.082031 C 246.339844 304.15625 238.53125 307.304688 238.386719 307.378906 C 238.175781 307.449219 237.886719 307.589844 237.742188 307.304688 C 237.601562 307.019531 234.445312 297.640625 233.585938 295.5625 C 232.800781 293.414062 227.785156 278.738281 227.714844 278.589844 C 227.644531 278.378906 227.644531 278.304688 227.5 278.589844 C 227.359375 278.878906 223.417969 284.820312 222.988281 285.394531 C 222.628906 285.894531 222.558594 286.324219 222.558594 286.324219 C 222.558594 286.324219 222.628906 290.550781 222.628906 290.90625 C 222.628906 291.195312 222.558594 295.703125 222.558594 296.492188 C 222.558594 297.285156 222.558594 297.207031 222.34375 297.28125 C 222.128906 297.355469 213.820312 297.140625 213.175781 297.140625 C 212.535156 297.140625 212.605469 297.28125 212.605469 296.28125 C 212.605469 295.277344 212.390625 273.800781 212.390625 272.007812 C 212.390625 270.214844 212.316406 248.59375 212.246094 247.949219 C 212.246094 247.234375 212.390625 247.375 213.035156 247.375 C 213.609375 247.375 221.847656 247.449219 221.847656 247.449219 C 222.421875 247.449219 222.347656 247.660156 222.421875 247.949219 Z M 222.414062 247.953125 " fill-opacity="1" fill-rule="nonzero"/></g><path fill="#1d1d1b" d="M 282.867188 247.878906 L 282.867188 254.109375 C 282.867188 254.894531 282.9375 256.328125 282.726562 256.6875 C 282.4375 256.972656 279.929688 256.761719 278.140625 256.828125 C 276.28125 256.96875 262.3125 256.6875 261.523438 256.6875 C 260.664062 256.761719 260.878906 256.972656 260.878906 257.261719 C 260.878906 257.476562 261.019531 259.695312 261.019531 260.480469 C 261.019531 261.269531 261.09375 268.070312 261.09375 269.578125 C 261.019531 271.082031 261.664062 270.507812 261.664062 270.507812 C 261.664062 270.507812 262.882812 270.007812 263.886719 269.648438 C 264.886719 269.289062 273.914062 265.496094 273.914062 265.496094 C 274.414062 265.355469 274.773438 265.066406 274.847656 265.207031 C 274.917969 265.496094 274.917969 265.78125 274.917969 266.425781 C 274.917969 267.074219 274.992188 273.15625 274.992188 273.800781 C 274.992188 274.375 273.988281 274.734375 272.628906 275.234375 C 271.265625 275.734375 261.527344 279.816406 261.308594 279.960938 C 261.09375 280.035156 261.09375 280.320312 261.09375 280.320312 C 261.09375 280.609375 261.308594 287.195312 261.308594 287.769531 C 261.382812 288.34375 261.308594 288.195312 261.808594 288.195312 C 262.238281 288.125 268.902344 288.125 269.835938 288.195312 C 270.765625 288.195312 282.082031 288.125 282.65625 288.195312 C 283.300781 288.195312 283.15625 288.628906 283.15625 289.128906 C 283.15625 289.558594 283.296875 295.785156 283.230469 296.503906 C 283.230469 297.21875 283.015625 297.292969 282.726562 297.292969 C 282.515625 297.363281 269.980469 297.433594 268.761719 297.363281 C 267.472656 297.363281 251.996094 297.363281 251.496094 297.292969 C 251.066406 297.292969 251.066406 296.933594 251.066406 296.933594 C 251.066406 294.351562 250.925781 284.476562 250.925781 283.46875 C 251 282.398438 250.925781 266.144531 250.925781 264.710938 C 250.925781 263.277344 250.855469 248.316406 250.855469 247.957031 C 250.855469 247.597656 250.855469 247.382812 251.355469 247.382812 C 251.78125 247.308594 266.039062 247.382812 268.1875 247.382812 C 270.191406 247.453125 282.367188 247.453125 282.367188 247.453125 C 282.367188 247.453125 282.796875 247.382812 282.871094 247.886719 Z M 282.867188 247.878906 " fill-opacity="1" fill-rule="nonzero"/><g clip-path="url(#8b04438a41)"><path fill="#1d1d1b" d="M 298.050781 247.808594 C 299.984375 253.535156 304.855469 266.277344 305.070312 266.851562 C 305.285156 267.496094 305.429688 266.996094 305.429688 266.996094 C 306.289062 265.0625 315.886719 239.070312 316.175781 238.214844 C 316.53125 237.355469 317.175781 237.929688 317.175781 237.929688 C 317.175781 237.929688 323.265625 240.722656 324.050781 241.222656 C 324.914062 241.722656 324.625 241.9375 324.625 241.9375 C 323.695312 244.730469 311.664062 276.734375 311.015625 278.527344 C 310.371094 280.246094 310.300781 280.746094 310.300781 280.746094 C 310.085938 282.535156 310.445312 303.226562 310.445312 303.226562 C 310.371094 303.941406 310.371094 303.800781 310.15625 303.941406 C 309.871094 304.082031 302.132812 307.089844 301.34375 307.234375 C 300.484375 307.449219 300.558594 306.949219 300.558594 306.449219 C 300.558594 305.875 300.628906 281.675781 300.628906 281.101562 C 300.628906 280.601562 300.269531 279.8125 300.269531 279.8125 C 299.984375 278.953125 288.667969 248.523438 288.453125 247.953125 C 288.308594 247.378906 288.238281 247.304688 288.8125 247.304688 C 289.527344 247.304688 297.476562 247.378906 297.476562 247.378906 C 297.90625 247.378906 298.050781 247.808594 298.050781 247.808594 Z M 298.050781 247.808594 " fill-opacity="1" fill-rule="nonzero"/></g><g clip-path="url(#a187dd0aed)"><path fill="#1d1d1b" d="M 351.34375 237.136719 C 351.484375 237.925781 354.851562 247.449219 354.996094 247.949219 C 355.210938 248.523438 354.785156 248.449219 354.785156 248.449219 C 354.785156 248.449219 353.207031 248.308594 348.765625 248.664062 C 344.183594 248.949219 336.660156 251.527344 335.660156 256.683594 C 334.511719 261.765625 340.886719 265.632812 340.886719 265.632812 C 353.351562 271.289062 355.355469 276.089844 355.355469 276.089844 C 360.371094 283.175781 358.222656 291.339844 356.289062 294.992188 C 354.355469 298.5 349.699219 300.792969 347.765625 301.652344 C 345.832031 302.585938 338.738281 304.519531 336.089844 305.160156 C 333.367188 305.804688 330.71875 306.949219 329.929688 307.234375 C 329 307.523438 329.070312 307.164062 329 307.09375 C 328.925781 306.953125 325.917969 296.351562 325.703125 295.851562 C 325.5625 295.277344 326.0625 295.351562 326.0625 295.351562 C 326.0625 295.351562 333.800781 296.640625 341.320312 294.0625 C 348.910156 291.488281 348.125 284.683594 348.125 284.683594 C 346.90625 278.023438 342.753906 278.023438 335.660156 273.871094 C 328.5 269.789062 326.277344 263.847656 325.703125 260.269531 C 325.203125 256.6875 325.203125 251.964844 328.925781 247.453125 C 332.648438 242.941406 338.597656 241.652344 343.46875 240.078125 C 348.410156 238.5 350.703125 237.070312 350.703125 237.070312 C 351.132812 236.566406 351.351562 237.140625 351.351562 237.140625 Z M 351.34375 237.136719 " fill-opacity="1" fill-rule="nonzero"/></g></svg>