<svg xmlns="http://www.w3.org/2000/svg" xmlns:xlink="http://www.w3.org/1999/xlink" width="500" zoomAndPan="magnify" viewBox="0 0 375 374.999991" height="500" preserveAspectRatio="xMidYMid meet" version="1.0"><defs><clipPath id="32b9f32c9f"><path d="M 123 67.480469 L 253 67.480469 L 253 177 L 123 177 Z M 123 67.480469 " clip-rule="nonzero"/></clipPath><clipPath id="d035d38bd7"><path d="M 16.539062 248 L 54 248 L 54 299 L 16.539062 299 Z M 16.539062 248 " clip-rule="nonzero"/></clipPath><clipPath id="0a5d35f346"><path d="M 77 247 L 123 247 L 123 307.480469 L 77 307.480469 Z M 77 247 " clip-rule="nonzero"/></clipPath><clipPath id="3b22b721f7"><path d="M 212 247 L 247 247 L 247 307.480469 L 212 307.480469 Z M 212 247 " clip-rule="nonzero"/></clipPath><clipPath id="e6aee4f5a8"><path d="M 288 237 L 325 237 L 325 307.480469 L 288 307.480469 Z M 288 237 " clip-rule="nonzero"/></clipPath><clipPath id="347c1a3634"><path d="M 325 236 L 358.539062 236 L 358.539062 307.480469 L 325 307.480469 Z M 325 236 " clip-rule="nonzero"/></clipPath></defs><path fill="#1d1d1b" d="M 163.414062 230.523438 C 163.144531 229.242188 162.875 227.964844 162.605469 226.683594 C 161.128906 219.59375 156.421875 197.574219 155.660156 194.382812 C 155.46875 193.570312 154.480469 193.253906 153.855469 193.8125 C 152.703125 194.835938 127.378906 218.660156 115.128906 230.523438 Z M 163.414062 230.523438 " fill-opacity="1" fill-rule="nonzero"/><path fill="#1d1d1b" d="M 260.738281 230.523438 C 250.398438 220.425781 222.070312 193.539062 222.070312 193.539062 C 221.632812 193.105469 220.894531 193.277344 220.707031 193.867188 C 220.050781 195.875 215.382812 216.332031 213.683594 224.34375 C 213.246094 226.402344 212.804688 228.464844 212.367188 230.523438 Z M 260.738281 230.523438 " fill-opacity="1" fill-rule="nonzero"/><g clip-path="url(#32b9f32c9f)"><path fill="#1d1d1b" d="M 129.179688 153.566406 C 132.5625 156.207031 136.660156 156.910156 140.71875 157.765625 C 142.105469 158.058594 143.59375 158.632812 144.671875 159.519531 C 148.878906 162.980469 151.882812 167.390625 154.105469 172.34375 C 154.746094 173.773438 155.378906 175.203125 156.011719 176.632812 C 156.214844 176.667969 156.414062 176.703125 156.617188 176.738281 C 157.9375 171.1875 161.433594 167.019531 165.535156 162.949219 C 152.511719 160.371094 144.589844 153.578125 144.011719 140.257812 C 143.609375 130.921875 147.976562 123.597656 156.175781 119.769531 C 169.675781 113.46875 180.132812 118.390625 187.769531 130.804688 C 194.214844 119.609375 203.40625 114.707031 215.84375 118.300781 C 224.734375 120.871094 231.105469 129.140625 231.367188 138.011719 C 231.792969 152.457031 223.871094 160.160156 209.597656 163 C 214.3125 166.785156 216.925781 171.570312 218.953125 176.585938 C 221.394531 172.34375 223.382812 168.339844 225.882812 164.6875 C 228.5 160.863281 231.613281 157.40625 236.851562 157.238281 C 237.851562 157.207031 238.863281 156.917969 239.835938 156.625 C 243.6875 155.476562 247.097656 153.652344 249.351562 150.132812 C 253.027344 144.394531 252.648438 138.164062 251.074219 132.03125 C 249.488281 125.863281 245.089844 124.179688 239.328125 127.066406 C 237.808594 127.828125 237.109375 127.632812 236.542969 125.890625 C 235.207031 121.765625 233.914062 117.585938 232.097656 113.664062 C 227.824219 104.429688 221.488281 97.027344 212.070312 92.636719 C 210.476562 91.894531 209.976562 90.902344 211.164062 89.296875 C 213.15625 86.609375 213.726562 83.496094 213.464844 80.21875 C 213.410156 79.507812 213.089844 78.816406 213.027344 78.59375 C 210.8125 80.21875 208.785156 81.847656 206.617188 83.25 C 205.339844 84.074219 204.625 83.511719 204.46875 82.074219 C 204.226562 79.855469 204.097656 77.578125 203.472656 75.457031 C 202.488281 72.085938 200.707031 69.171875 196.941406 67.480469 C 196.824219 68.421875 196.804688 69.125 196.640625 69.789062 C 196.023438 72.261719 195.878906 75.035156 194.613281 77.125 C 190.40625 84.058594 183.566406 87.4375 175.960938 88.910156 C 168.921875 90.277344 162.328125 92.339844 156.566406 96.707031 C 146.996094 103.953125 142.21875 114.152344 139.003906 125.296875 C 138.28125 127.796875 138.101562 127.859375 135.71875 126.855469 C 131.234375 124.964844 126.484375 124.976562 124.710938 130.882812 C 123.714844 134.1875 123.53125 137.8125 123.445312 141.304688 C 123.320312 146.246094 125.21875 150.464844 129.183594 153.566406 Z M 129.179688 153.566406 " fill-opacity="1" fill-rule="nonzero"/></g><path fill="#1d1d1b" d="M 173.890625 187.183594 C 177.824219 189.402344 181.980469 190.644531 186.273438 190.265625 C 191.714844 190.507812 196.644531 189.507812 201.328125 187.261719 C 203.296875 186.3125 204.394531 183.886719 203.71875 181.84375 C 203.371094 180.789062 202.726562 180.664062 201.832031 181.128906 C 200.148438 181.996094 198.46875 182.875 196.78125 183.746094 C 191.832031 186.308594 186.691406 186.875 181.46875 184.832031 C 178.773438 183.777344 176.21875 182.34375 173.640625 180.992188 C 172.503906 180.398438 172.011719 180.855469 171.675781 181.851562 C 171.007812 183.855469 171.992188 186.113281 173.886719 187.183594 Z M 173.890625 187.183594 " fill-opacity="1" fill-rule="nonzero"/><path fill="#1d1d1b" d="M 176.136719 166.34375 C 177.804688 168.589844 180.09375 169.9375 183.003906 170.675781 C 183.273438 170.558594 183.855469 170.476562 184.015625 170.171875 C 184.179688 169.851562 184.078125 169.234375 183.859375 168.890625 C 182.265625 166.398438 179.886719 165.105469 177.011719 164.78125 C 175.941406 164.660156 175.457031 165.425781 176.136719 166.34375 Z M 176.136719 166.34375 " fill-opacity="1" fill-rule="nonzero"/><path fill="#1d1d1b" d="M 199.261719 166.226562 C 199.378906 166.082031 198.945312 165.125 198.613281 165.019531 C 196.585938 164.363281 191.949219 167.058594 191.425781 169.21875 C 191.316406 169.667969 191.761719 170.257812 191.949219 170.777344 C 195.199219 169.902344 197.464844 168.402344 199.265625 166.230469 Z M 199.261719 166.226562 " fill-opacity="1" fill-rule="nonzero"/><path fill="#ffffff" d="M 204.695312 197.429688 C 204.695312 197.429688 189.238281 202.300781 188.730469 202.472656 C 188.128906 202.695312 187.707031 202.660156 186.917969 202.472656 C 186.125 202.28125 170.953125 197.429688 170.953125 197.429688 C 169.566406 196.902344 168.082031 197.921875 168.082031 199.410156 L 168.082031 209.492188 C 168.082031 210.976562 169.566406 212.003906 170.953125 211.472656 C 170.953125 211.472656 186.28125 206.625 186.917969 206.429688 C 187.550781 206.230469 188.125 206.191406 188.730469 206.429688 C 189.332031 206.667969 204.695312 211.472656 204.695312 211.472656 C 206.078125 212 207.5625 210.976562 207.5625 209.492188 L 207.5625 199.410156 C 207.5625 197.921875 206.078125 196.898438 204.695312 197.429688 Z M 204.695312 197.429688 " fill-opacity="1" fill-rule="nonzero"/><path fill="#1d1d1b" d="M 215.980469 143.066406 C 216.199219 142.207031 216.574219 141.042969 214.957031 141.109375 C 210.214844 141.3125 207.34375 138.957031 205.992188 134.550781 C 205.628906 133.363281 204.976562 133.242188 204.003906 133.761719 C 200.945312 135.394531 199.253906 139.328125 200.109375 142.835938 C 201.023438 146.605469 204.191406 149.175781 207.941406 149.183594 C 211.632812 149.195312 215.09375 146.59375 215.984375 143.066406 Z M 215.980469 143.066406 " fill-opacity="1" fill-rule="nonzero"/><path fill="#1d1d1b" d="M 174.59375 141.097656 C 173.328125 141 172 140.820312 170.835938 140.332031 C 168.335938 139.285156 166.847656 137.257812 166.164062 134.644531 C 165.839844 133.425781 165.15625 133.167969 164.078125 133.785156 C 160.78125 135.679688 159.34375 139.488281 160.410156 143.53125 C 161.226562 146.640625 164.738281 149.191406 168.191406 149.183594 C 171.722656 149.179688 175.296875 146.492188 176.109375 143.222656 C 176.523438 141.5625 176.195312 141.21875 174.597656 141.09375 Z M 174.59375 141.097656 " fill-opacity="1" fill-rule="nonzero"/><g clip-path="url(#d035d38bd7)"><path fill="#ffffff" d="M 17.222656 281.726562 L 23.621094 281.378906 C 23.085938 283.21875 22.785156 284.863281 22.714844 286.308594 C 22.480469 291.414062 25.171875 293.96875 30.792969 293.96875 C 36.410156 293.96875 39.078125 290.855469 39.078125 284.632812 C 39.078125 278.40625 35.78125 275.191406 29.183594 275.191406 L 25.40625 275.257812 L 25.40625 269.628906 L 28.132812 269.664062 C 35.082031 269.664062 38.554688 266.726562 38.554688 260.851562 C 38.554688 255.75 36.09375 253.195312 31.179688 253.195312 C 26.261719 253.195312 23.90625 255.449219 23.90625 259.945312 C 23.90625 261.039062 24.042969 262.308594 24.324219 263.757812 L 17.925781 262.425781 C 17.925781 253.40625 23.171875 248.894531 33.660156 248.894531 C 45.761719 248.894531 51.808594 253.019531 51.808594 261.273438 C 51.808594 266.679688 48.394531 270.351562 41.5625 272.289062 C 49.300781 274.0625 53.171875 278.070312 53.171875 284.316406 C 53.171875 293.617188 46.726562 298.269531 33.832031 298.269531 C 22.367188 298.269531 16.628906 294.421875 16.628906 286.730469 C 16.628906 285.289062 16.828125 283.621094 17.222656 281.730469 Z M 17.222656 281.726562 " fill-opacity="1" fill-rule="nonzero"/></g><g clip-path="url(#0a5d35f346)"><path fill="#1d1d1b" d="M 94.25 247.832031 C 94.460938 249.121094 95.96875 255.496094 97.042969 260.292969 C 98.117188 265.089844 100.265625 272.039062 100.410156 272.464844 C 100.550781 272.894531 100.550781 272.464844 100.550781 272.464844 C 100.691406 271.820312 105.777344 248.691406 105.921875 248.046875 C 106.132812 247.332031 106.421875 247.472656 106.421875 247.472656 L 121.53125 247.472656 C 121.820312 247.546875 122.03125 247.472656 122.03125 248.046875 C 122.03125 250.121094 122.03125 287.003906 121.960938 288.078125 C 121.960938 289.152344 122.101562 302.257812 122.101562 302.902344 C 122.101562 303.476562 121.886719 303.332031 121.527344 303.617188 C 121.167969 303.832031 113.152344 307.199219 112.933594 307.125 C 112.71875 307.125 112.574219 307.199219 112.574219 306.410156 C 112.503906 305.625 112.359375 286.144531 112.359375 285.429688 C 112.359375 284.640625 112.289062 266.023438 112.289062 265.160156 C 112.214844 264.300781 112 265.019531 112 265.019531 C 112 265.019531 111.429688 267.09375 111.285156 267.8125 C 111.144531 268.386719 107.917969 282.78125 107.632812 284 C 107.347656 285.359375 104.984375 296.171875 104.839844 296.890625 C 104.699219 297.605469 104.554688 297.535156 104.265625 297.535156 L 96.890625 297.535156 C 96.175781 297.535156 96.03125 297.390625 95.957031 297.175781 C 95.816406 296.960938 93.59375 285.792969 92.589844 282.066406 C 91.589844 278.410156 88.4375 265.09375 88.292969 264.378906 C 88.082031 263.730469 88.082031 263.949219 88.082031 264.238281 C 88.007812 264.449219 88.007812 280.5625 88.007812 280.921875 C 88.007812 281.351562 88.148438 295.890625 88.148438 296.675781 C 88.148438 297.464844 87.863281 297.390625 87.863281 297.390625 C 87.789062 297.464844 86.789062 297.390625 86.359375 297.390625 C 86 297.390625 79.125 297.464844 78.839844 297.390625 C 78.480469 297.390625 78.554688 297.25 78.554688 297.25 C 78.554688 297.25 78.339844 277.484375 78.339844 273.90625 C 78.339844 270.328125 77.980469 247.980469 77.980469 247.980469 C 77.980469 247.480469 78.050781 247.480469 78.480469 247.480469 C 78.695312 247.410156 93.804688 247.554688 93.804688 247.554688 C 93.804688 247.554688 94.164062 247.414062 94.234375 247.839844 Z M 94.25 247.832031 " fill-opacity="1" fill-rule="nonzero"/></g><path fill="#1d1d1b" d="M 163.425781 259.9375 C 166.507812 273.328125 163.640625 283.5 163.640625 283.5 C 160.847656 295.171875 152.183594 297.675781 152.183594 297.675781 C 141.371094 300.898438 134.570312 293.597656 134.570312 293.597656 C 126.546875 286.578125 127.839844 273.617188 128.195312 271.828125 C 128.40625 270.039062 129.414062 266.597656 129.414062 266.597656 C 129.484375 266.382812 129.414062 266.3125 129.699219 266.3125 C 130.128906 266.3125 130.488281 266.671875 130.488281 266.671875 C 133.496094 268.246094 137.433594 268.746094 138.222656 268.890625 C 139.007812 269.03125 138.722656 269.320312 138.722656 269.320312 C 138.007812 273.402344 138.222656 278.269531 138.222656 278.269531 C 138.648438 288.941406 146.3125 288.796875 146.3125 288.796875 C 151.753906 288.222656 154.476562 284.214844 154.761719 272.324219 C 154.976562 260.507812 150.753906 258.003906 150.753906 258.003906 C 146.457031 254.566406 142.949219 257.570312 142.949219 257.570312 C 139.867188 260.4375 142.589844 263.585938 142.589844 263.585938 C 137.863281 266.378906 130.558594 260.792969 129.699219 260.007812 C 128.839844 259.21875 129.339844 258.785156 129.339844 258.785156 C 133.851562 244.96875 147.601562 246.183594 147.601562 246.183594 C 160.417969 246.757812 163.425781 259.933594 163.425781 259.933594 Z M 163.425781 259.9375 " fill-opacity="1" fill-rule="nonzero"/><path fill="#1d1d1b" d="M 183.835938 247.90625 C 183.910156 248.191406 186.484375 254.5625 188.851562 260.4375 C 191.070312 266.308594 194.792969 273.828125 194.792969 273.828125 C 195.152344 274.542969 195.152344 274.042969 195.152344 274.042969 C 195.226562 273.042969 195.152344 254.351562 195.152344 252.632812 C 195.152344 250.917969 195.226562 238.957031 195.226562 238.242188 C 195.226562 237.527344 195.871094 237.8125 195.871094 237.8125 C 196.585938 238.171875 203.105469 240.746094 204.105469 241.179688 C 205.109375 241.609375 204.894531 241.824219 204.894531 241.824219 L 204.964844 242.039062 C 204.824219 244.1875 204.679688 264.953125 204.753906 267.890625 C 204.824219 271.039062 204.964844 295.890625 204.964844 296.75 C 204.964844 297.535156 205.039062 297.175781 204.464844 297.320312 C 203.820312 297.464844 195.015625 297.535156 194.296875 297.535156 C 193.578125 297.535156 193.582031 297.175781 193.582031 297.175781 C 192.21875 293.882812 189.925781 288.652344 188.136719 283.785156 C 186.132812 278.703125 181.476562 268.53125 181.121094 267.671875 C 180.835938 266.8125 180.691406 267.53125 180.621094 267.671875 C 180.621094 267.886719 180.621094 296.675781 180.546875 296.960938 C 180.546875 297.152344 180.453125 297.296875 180.261719 297.390625 C 179.902344 297.535156 171.3125 297.390625 171.023438 297.390625 C 170.738281 297.390625 170.808594 297.390625 170.738281 296.890625 C 170.664062 296.390625 170.738281 276.550781 170.738281 276.550781 C 170.597656 271.535156 170.664062 248.050781 170.738281 247.621094 C 170.738281 247.261719 170.953125 247.261719 171.3125 247.261719 C 171.597656 247.332031 182.839844 247.261719 182.839844 247.261719 C 183.628906 247.261719 183.699219 247.6875 183.84375 247.90625 Z M 183.835938 247.90625 " fill-opacity="1" fill-rule="nonzero"/><g clip-path="url(#3b22b721f7)"><path fill="#1d1d1b" d="M 222.363281 247.976562 L 222.363281 257.359375 C 222.363281 258.363281 222.4375 267.53125 222.4375 267.746094 C 222.4375 267.957031 222.648438 267.886719 222.648438 267.886719 C 222.792969 267.746094 230.027344 256 230.3125 255.425781 C 230.671875 254.855469 234.824219 247.910156 234.894531 247.765625 C 234.96875 247.621094 235.109375 247.550781 235.609375 247.550781 C 236.109375 247.550781 244.992188 247.476562 245.28125 247.476562 C 245.566406 247.40625 245.925781 247.476562 246.066406 247.621094 C 246.207031 247.761719 246.066406 248.121094 245.996094 248.265625 C 245.851562 248.40625 244.347656 250.984375 243.847656 251.773438 C 243.34375 252.5625 234.75 267.027344 234.324219 267.601562 C 233.964844 268.101562 234.109375 268.171875 234.179688 268.316406 C 234.179688 268.460938 239.980469 283.925781 240.195312 284.640625 C 240.410156 285.214844 246.640625 302.828125 246.785156 303.402344 C 246.929688 304.046875 246.644531 304.046875 246.425781 304.117188 C 246.285156 304.191406 238.476562 307.339844 238.335938 307.414062 C 238.121094 307.484375 237.835938 307.625 237.6875 307.339844 C 237.546875 307.054688 234.394531 297.675781 233.535156 295.59375 C 232.746094 293.449219 227.734375 278.765625 227.664062 278.621094 C 227.59375 278.410156 227.59375 278.335938 227.449219 278.621094 C 227.308594 278.910156 223.367188 284.851562 222.9375 285.425781 C 222.578125 285.925781 222.507812 286.359375 222.507812 286.359375 C 222.507812 286.359375 222.582031 290.585938 222.582031 290.941406 C 222.582031 291.226562 222.507812 295.738281 222.507812 296.527344 C 222.507812 297.320312 222.507812 297.242188 222.292969 297.316406 C 222.082031 297.386719 213.773438 297.171875 213.128906 297.171875 C 212.488281 297.171875 212.554688 297.316406 212.554688 296.3125 C 212.554688 295.3125 212.34375 273.828125 212.34375 272.039062 C 212.34375 270.246094 212.269531 248.621094 212.199219 247.976562 C 212.199219 247.261719 212.34375 247.402344 212.988281 247.402344 C 213.5625 247.402344 221.796875 247.472656 221.796875 247.472656 C 222.371094 247.472656 222.296875 247.6875 222.371094 247.976562 Z M 222.363281 247.976562 " fill-opacity="1" fill-rule="nonzero"/></g><path fill="#1d1d1b" d="M 282.800781 247.90625 L 282.800781 254.136719 C 282.800781 254.921875 282.875 256.355469 282.660156 256.714844 C 282.375 257 279.867188 256.789062 278.078125 256.855469 C 276.21875 257 262.253906 256.714844 261.464844 256.714844 C 260.605469 256.789062 260.820312 257 260.820312 257.289062 C 260.820312 257.503906 260.960938 259.722656 260.960938 260.511719 C 260.960938 261.296875 261.03125 268.101562 261.03125 269.605469 C 260.960938 271.113281 261.605469 270.539062 261.605469 270.539062 C 261.605469 270.539062 262.824219 270.039062 263.828125 269.679688 C 264.828125 269.320312 273.851562 265.523438 273.851562 265.523438 C 274.351562 265.382812 274.710938 265.097656 274.785156 265.238281 C 274.855469 265.523438 274.855469 265.8125 274.855469 266.457031 C 274.855469 267.101562 274.929688 273.1875 274.929688 273.832031 C 274.929688 274.40625 273.925781 274.765625 272.566406 275.265625 C 271.207031 275.765625 261.46875 279.847656 261.25 279.992188 C 261.035156 280.066406 261.035156 280.351562 261.035156 280.351562 C 261.035156 280.640625 261.25 287.226562 261.25 287.800781 C 261.324219 288.375 261.25 288.230469 261.75 288.230469 C 262.179688 288.15625 268.839844 288.15625 269.773438 288.230469 C 270.707031 288.230469 282.019531 288.15625 282.589844 288.230469 C 283.238281 288.230469 283.09375 288.660156 283.09375 289.160156 C 283.09375 289.589844 283.234375 295.820312 283.164062 296.539062 C 283.164062 297.253906 282.949219 297.324219 282.664062 297.324219 C 282.449219 297.398438 269.917969 297.46875 268.699219 297.398438 C 267.410156 297.398438 251.941406 297.398438 251.441406 297.324219 C 251.011719 297.324219 251.011719 296.964844 251.011719 296.964844 C 251.011719 294.386719 250.871094 284.507812 250.871094 283.503906 C 250.941406 282.429688 250.871094 266.171875 250.871094 264.742188 C 250.871094 263.308594 250.796875 248.339844 250.796875 247.980469 C 250.796875 247.621094 250.796875 247.410156 251.296875 247.410156 C 251.726562 247.335938 265.976562 247.410156 268.125 247.410156 C 270.132812 247.480469 282.304688 247.480469 282.304688 247.480469 C 282.304688 247.480469 282.734375 247.410156 282.804688 247.914062 Z M 282.800781 247.90625 " fill-opacity="1" fill-rule="nonzero"/><g clip-path="url(#e6aee4f5a8)"><path fill="#1d1d1b" d="M 297.984375 247.832031 C 299.917969 253.5625 304.785156 266.308594 305 266.882812 C 305.214844 267.527344 305.359375 267.027344 305.359375 267.027344 C 306.21875 265.09375 315.816406 239.097656 316.101562 238.242188 C 316.460938 237.378906 317.101562 237.953125 317.101562 237.953125 C 317.101562 237.953125 323.191406 240.746094 323.980469 241.25 C 324.839844 241.75 324.550781 241.964844 324.550781 241.964844 C 323.621094 244.757812 311.59375 276.765625 310.945312 278.558594 C 310.300781 280.277344 310.230469 280.777344 310.230469 280.777344 C 310.015625 282.566406 310.375 303.261719 310.375 303.261719 C 310.300781 303.976562 310.300781 303.835938 310.085938 303.976562 C 309.800781 304.117188 302.066406 307.125 301.277344 307.269531 C 300.417969 307.484375 300.488281 306.984375 300.488281 306.484375 C 300.488281 305.910156 300.5625 281.707031 300.5625 281.132812 C 300.5625 280.632812 300.203125 279.84375 300.203125 279.84375 C 299.917969 278.984375 288.605469 248.550781 288.386719 247.976562 C 288.246094 247.40625 288.171875 247.332031 288.746094 247.332031 C 289.460938 247.332031 297.410156 247.40625 297.410156 247.40625 C 297.835938 247.40625 297.984375 247.832031 297.984375 247.832031 Z M 297.984375 247.832031 " fill-opacity="1" fill-rule="nonzero"/></g><g clip-path="url(#347c1a3634)"><path fill="#1d1d1b" d="M 351.261719 237.164062 C 351.40625 237.949219 354.773438 247.472656 354.917969 247.976562 C 355.128906 248.546875 354.703125 248.476562 354.703125 248.476562 C 354.703125 248.476562 353.128906 248.335938 348.6875 248.691406 C 344.105469 248.976562 336.582031 251.550781 335.582031 256.710938 C 334.433594 261.792969 340.808594 265.664062 340.808594 265.664062 C 353.269531 271.320312 355.277344 276.117188 355.277344 276.117188 C 360.289062 283.207031 358.140625 291.371094 356.207031 295.027344 C 354.273438 298.535156 349.621094 300.828125 347.683594 301.6875 C 345.75 302.621094 338.664062 304.554688 336.011719 305.195312 C 333.292969 305.839844 330.644531 306.984375 329.855469 307.269531 C 328.925781 307.558594 328.996094 307.199219 328.925781 307.128906 C 328.851562 306.988281 325.84375 296.386719 325.628906 295.886719 C 325.488281 295.3125 325.988281 295.382812 325.988281 295.382812 C 325.988281 295.382812 333.722656 296.671875 341.242188 294.097656 C 348.832031 291.519531 348.042969 284.714844 348.042969 284.714844 C 346.824219 278.054688 342.675781 278.054688 335.585938 273.902344 C 328.421875 269.820312 326.203125 263.878906 325.628906 260.296875 C 325.128906 256.714844 325.128906 251.992188 328.851562 247.476562 C 332.574219 242.96875 338.519531 241.675781 343.390625 240.101562 C 348.332031 238.527344 350.625 237.09375 350.625 237.09375 C 351.050781 236.59375 351.269531 237.167969 351.269531 237.167969 Z M 351.261719 237.164062 " fill-opacity="1" fill-rule="nonzero"/></g></svg>